<svg width="693.336" height="917.848" xmlns="http://www.w3.org/2000/svg" xmlns:xlink="http://www.w3.org/1999/xlink" id="svg1" xml:space="preserve" overflow="hidden"><defs id="defs1"><rect x="11.7086" y="563.183" width="228.317" height="71.4223" id="rect13"/><rect x="44.4926" y="567.866" width="186.166" height="64.3972" id="rect12"/><rect x="196.704" y="879.314" width="162.749" height="46.8343" id="rect1"/><rect x="423.85" y="371.162" width="158.066" height="38.6383" id="rect146"/><rect x="391.066" y="196.704" width="218.95" height="78.4475" id="rect145"/><rect x="40.98" y="409.8" width="180.312" height="81.96" id="rect144"/><rect x="42.1509" y="396.921" width="168.603" height="78.4475" id="rect143"/><rect x="416.825" y="73.764" width="241.197" height="50.3469" id="rect137"/><rect x="454.293" y="80.7892" width="237.684" height="48.0052" id="rect136"/><rect x="3.51257" y="40.98" width="220.121" height="51.5177" id="rect134"/><rect x="199.046" y="5.85429" width="165.091" height="44.4926" id="rect133"/></defs><g id="svg132" transform="matrix(0.0377953 0 0 0.0377953 -8.87133 -7.70047)"><path d="M7575.27 1187.77 5621.46 1187.77 5621.46 217.48 9529.09 217.48 9529.09 1187.77Z" id="path1" stroke="#000000" stroke-width="27.4767" fill="none"/><text id="text3" stroke-width="27.4767" font-size="11.6831" transform="scale(1.0034 0.996607)" x="246.642" y="217.247"><tspan>Powe<tspan x="7310.07" y="800.429"><tspan font-family="Noto Sans SC,Arial" font-weight="400" font-size="240.477"></tspan></tspan></tspan></text><path d="M7575.27 3128.35 5621.46 3128.35 5621.46 2158.06 9529.09 2158.06 9529.09 3128.35Z" id="path3" stroke="#000000" stroke-width="27.4767" fill="none"/><path d="M7575.27 8950.09 5621.46 8950.09 5621.46 7979.8 9529.09 7979.8 9529.09 8950.09Z" id="path4" stroke="#000000" stroke-width="27.4767" fill="none"/><path d="M7575.27 1187.77 7575.27 1866.97" id="path9" stroke="#000000" stroke-width="27.4767" fill="none"/><path d="M7721.81 1866.97 7575.27 2158.06 7428.74 1866.97Z" id="path10" stroke-width="27.4767"/><path d="M7526.43 3096.33 7526.43 7656.69" id="path11" stroke="#000000" stroke-width="27.4767" stroke-linecap="round" stroke-dasharray="52.5741 52.5741" fill="none"/><path d="M7672.97 7656.69 7526.43 7947.78 7379.89 7656.69Z" id="path12" stroke-width="27.4767"/><path d="M2690.73 7009.51 736.913 7009.51 736.913 6039.22 4644.55 6039.22 4644.55 7009.51Z" id="path13" stroke="#000000" stroke-width="27.4767" fill="none"/><path d="M2691.71 4098.64 4645.53 4583.79 2691.71 5069.9 737.89 4583.79Z" id="path14" stroke="#000000" stroke-width="27.4767" fill="none"/><path d="M7575.27 3613.5 2690.73 3613.5" id="path17" stroke="#000000" stroke-width="27.4767" fill="none"/><path d="M2690.73 3613.5 2690.73 3807.55" id="path18" stroke="#000000" stroke-width="27.4767" fill="none"/><path d="M2837.27 3807.55 2690.73 4098.64 2544.19 3807.55Z" id="path19" stroke-width="27.4767"/><path d="M2568.62 7979.8 248.459 7979.8 248.459 2158.06 4888.78 2158.06 4888.78 7979.8Z" id="path20" stroke="#3465A4" stroke-width="27.4767" stroke-linecap="round" stroke-dasharray="186.043 106.311" fill="none"/><path d="M4644.55 4583.79 7282.2 4583.79" id="path21" stroke="#000000" stroke-width="27.4767" fill="none"/><path d="M7282.2 4438.24 7575.27 4583.79 7282.2 4729.33Z" id="path22" stroke-width="27.4767"/><path d="M2690.73 5068.93 2690.73 5748.13" id="path23" stroke="#000000" stroke-width="27.4767" fill="none"/><path d="M2837.27 5748.13 2690.73 6039.22 2544.19 5748.13Z" id="path24" stroke-width="27.4767"/><text id="text26" stroke-width="27.4767" font-size="11.6831" transform="scale(1.0034 0.996607)" x="246.642" y="217.247"><tspan><tspan x="5845.78" y="4473.8"><tspan font-family="Noto Sans SC,Arial" font-weight="400" font-size="240.477"></tspan></tspan></tspan></text><path d="M4644.55 6524.37 7282.2 6524.37" id="path35" stroke="#000000" stroke-width="27.4767" fill="none"/><path d="M7282.2 6378.82 7575.27 6524.37 7282.2 6669.91Z" id="path36" stroke-width="27.4767"/><path d="M13436.7 10890.7 11482.9 10890.7 11482.9 9920.38 15390.5 9920.38 15390.5 10890.7Z" id="path56" stroke="#000000" stroke-width="27.4767" fill="none"/><path d="M13436.7 12831.2 10506 12831.2 10506 7979.8 16367.5 7979.8 16367.5 12831.2Z" id="path64" stroke="#3465A4" stroke-width="27.4767" stroke-linecap="round" stroke-dasharray="186.043 106.311" fill="none"/><path d="M7575.27 8950.09 7575.27 23213.4" id="path76" stroke="#000000" stroke-width="27.4767" stroke-linecap="round" stroke-dasharray="52.5741 52.5741" fill="none"/><path d="M7721.81 23213.4 7575.27 23504.4 7428.74 23213.4Z" id="path77" stroke-width="27.4767"/><path d="M7575.27 9435.24 13436.7 9435.24" id="path78" stroke="#000000" stroke-width="27.4767" fill="none"/><path d="M13436.7 9435.24 13436.7 9629.29" id="path79" stroke="#000000" stroke-width="27.4767" fill="none"/><path d="M13583.3 9629.29 13436.7 9920.38 13290.2 9629.29Z" id="path80" stroke-width="27.4767"/><path d="M13436.7 10890.7 13436.7 11375.8" id="path81" stroke="#3465A4" stroke-width="27.4767" fill="none"/><path d="M13436.7 11375.8 7868.35 11375.8" id="path82" stroke="#000000" stroke-width="27.4767" fill="none"/><path d="M7868.35 11521.4 7575.27 11375.8 7868.35 11230.3Z" id="path83" stroke-width="27.4767"/><path d="M2568.62 7979.8 248.459 7979.8 248.459 2158.06 4888.78 2158.06 4888.78 7979.8Z" id="path84" stroke="#3465A4" stroke-width="27.4767" stroke-linecap="round" stroke-dasharray="186.043 106.311" fill="none"/><path d="M7575.27 24474.7 5621.46 24474.7 5621.46 23504.4 9529.09 23504.4 9529.09 24474.7Z" id="path85" stroke="#000000" stroke-width="27.4767" fill="none"/><path d="M16872.5 17682.7 15407.2 17682.7 15407.2 16712.4 18337.9 16712.4 18337.9 17682.7Z" id="path88" stroke="#000000" stroke-width="27.4767" fill="none"/><path d="M16855.9 21563.9 15390.5 21563.9 15390.5 20593.6 18321.3 20593.6 18321.3 21563.9Z" id="path89" stroke="#000000" stroke-width="27.4767" fill="none"/><path d="M14535.8 23504.4 10506 23504.4 10506 15257 18565.5 15257 18565.5 23504.4Z" id="path90" stroke="#3465A4" stroke-width="27.4767" stroke-linecap="round" stroke-dasharray="186.043 106.311" fill="none"/><text id="text100" stroke-width="27.4767" font-size="11.6831" transform="scale(1.0034 0.996607)" x="246.642" y="217.247"><tspan><tspan x="15844.6" y="17363.2"><tspan font-family="Liberation Sans,Arial" font-weight="400" font-size="308.629">cpu_init_cp15</tspan></tspan></tspan></text><path d="M16733.8 17925.3 14902.1 17925.3 14902.1 16469.8 18565.5 16469.8 18565.5 17925.3Z" id="path100" stroke="#3465A4" stroke-width="27.4767" stroke-linecap="round" stroke-dasharray="186.043 106.311" fill="none"/><path d="M16245.3 23504.4 13925.2 23504.4 13925.2 20108.4 18565.5 20108.4 18565.5 23504.4Z" id="path109" stroke="#3465A4" stroke-width="27.4767" stroke-linecap="round" stroke-dasharray="186.043 106.311" fill="none"/><path d="M7575.27 13801.5 13436.7 13801.5" id="path117" stroke="#000000" stroke-width="27.4767" fill="none"/><path d="M13404.5 13801.5 13436.7 23019.3" id="path118" stroke="#000000" stroke-width="27.4767" stroke-dasharray="51.6005 33.1021" fill="none"/><path d="M13436.7 23019.3 7868.35 23019.3" id="path119" stroke="#000000" stroke-width="27.4767" fill="none"/><path d="M7868.35 23164.8 7575.27 23019.3 7868.35 22873.8Z" id="path120" stroke-width="27.4767"/><path d="M13436.7 16227.3 16855.9 16227.3" id="path121" stroke="#000000" stroke-width="27.4767" fill="none"/><path d="M16855.9 16227.3 16855.9 16421.3" id="path122" stroke="#000000" stroke-width="27.4767" fill="none"/><path d="M17002.4 16421.3 16855.9 16712.4 16709.4 16421.3Z" id="path123" stroke-width="27.4767"/><path d="M16855.9 17682.7 16855.9 20302.5" id="path124" stroke="#000000" stroke-width="27.4767" fill="none"/><path d="M17002.4 20302.5 16855.9 20593.6 16709.4 20302.5Z" id="path125" stroke-width="27.4767"/><path d="M16872.5 18974.2 7884.96 18974.2" id="path126" stroke="#000000" stroke-width="27.4767" fill="none"/><path d="M7884.96 19119.7 7591.88 18974.2 7884.96 18828.6Z" id="path127" stroke-width="27.4767"/><path d="M16123.2 21562.9 17587.6 21562.9" id="path128" stroke="#3465A4" stroke-width="27.4767" fill="none"/><path d="M16855.9 21563.9 16855.9 23019.3" id="path129" stroke="#000000" stroke-width="27.4767" fill="none"/><path d="M16855.9 23019.3 13436.7 23019.3" id="path130" stroke="#000000" stroke-width="27.4767" fill="none"/><text id="text132" stroke-width="27.4767" font-size="11.6831" transform="scale(1.0034 0.996607)" x="246.642" y="217.247"><tspan><tspan x="15885.5" y="21268.3"><tspan font-family="Liberation Sans,Arial" font-weight="400" font-size="342.705">cpu_init_crit</tspan></tspan></tspan></text><text id="text133" transform="matrix(26.4583 0 0 26.4583 1765.8 340.768)"><tspan x="199.045" y="16.772">power on</tspan></text><text id="text134" transform="scale(26.4583 26.4583)"></text><text id="text135" stroke-width="716.099" font-size="304.485" transform="scale(0.959009 1.04274)" x="355.759" y="8437.38"><tspan x="355.759" y="8437.38">if CONFIG_ARMV7_LAPE not defined,</tspan><tspan x="355.759" y="8817.99">then, thiere is no this block</tspan></text><text id="text136" transform="scale(26.4583 26.4583)"></text><text id="text137" transform="scale(26.4583 26.4583)"></text><text id="text139" stroke-width="746.707" font-size="317.5" x="6009.91" y="2726.15"><tspan x="6009.91" y="2726.15">save boot parameter</tspan></text><text id="text140" stroke-width="746.707" font-size="317.5" x="5204.46" y="4429.99"><tspan x="5204.46" y="4429.99">N</tspan></text><text id="text141" stroke-width="746.707" font-size="317.5" x="2881.04" y="5452.29"><tspan x="2881.04" y="5452.29">Y</tspan></text><text id="text142" stroke-width="635.054" font-size="270.025" transform="scale(1.22116 0.818891)" x="1522.1" y="5509.44"><tspan x="1522.1" y="5509.44">hypervisor</tspan><tspan x="1522.1" y="5846.97"> supported</tspan></text><text id="text143" transform="matrix(26.4583 0 0 26.4583 -30.9789 -4151.18)"><tspan x="42.1504" y="407.838">switch to hypervisor</tspan></text><text id="text144" transform="matrix(26.4583 0 0 26.4583 4677.82 -2788.1)"><tspan x="40.9805" y="420.719">config CPU to SVC mode, </tspan><tspan x="40.9805" y="435.719">disable FIQ and IRQ</tspan></text><text id="text145" transform="matrix(26.4583 0 0 26.4583 340.768 1734.82)"><tspan x="391.066" y="207.622">if CONFIG_has_VBAR is not defined, </tspan><tspan x="391.066" y="222.622">then there is no this block</tspan></text><text id="text146" transform="matrix(24.3341 0 0 30.0372 1334.01 -1086.96)"><tspan x="423.85" y="382.081">set VBAR register value as </tspan><tspan x="423.85" y="397.081">_start</tspan></text><text id="text1" transform="matrix(26.4583 0 0 26.4583 1146.22 557.621)"><tspan x="196.703" y="890.233">jump to _main</tspan></text><text id="text12" transform="matrix(26.4583 0 0 26.4583 12422.6 371.747)"><tspan x="44.4922" y="578.784">if CONFIG_CPU_V7A not defined, </tspan><tspan x="44.4922" y="593.784">there is not this block</tspan></text><text id="text13" transform="matrix(27.4298 0 0 26.4583 11450.2 8829)"><tspan x="11.709" y="574.1">if CONFIG_SKIP_LOWLEVEL_INIT_ONLY, </tspan><tspan x="11.709" y="589.1">there is no this block</tspan></text></g></svg>